<svg xmlns="http://www.w3.org/2000/svg" viewBox="0 0 1600 1000" role="img" aria-label="Ilustrasi perjalanan haji dan umrah">
  <defs>
    <linearGradient id="sky" x1="0" x2="1" y1="0" y2="1">
      <stop stop-color="#99f6e4"/>
      <stop offset="1" stop-color="#fef3c7"/>
    </linearGradient>
  </defs>
  <rect width="1600" height="1000" fill="url(#sky)"/>
  <circle cx="1250" cy="190" r="92" fill="#fbbf24" opacity=".8"/>
  <path d="M0 690c190-85 328-92 528-18 192 70 376 52 562-16 196-72 332-70 510 18v326H0z" fill="#f8fafc" opacity=".78"/>
  <path d="M0 760c220-72 432-70 624-14 210 62 424 52 642-14 134-40 246-44 334-16v284H0z" fill="#ccfbf1" opacity=".72"/>
  <rect x="632" y="455" width="336" height="286" rx="10" fill="#111827"/>
  <rect x="632" y="498" width="336" height="58" fill="#f59e0b"/>
  <rect x="730" y="410" width="140" height="45" rx="8" fill="#334155"/>
  <path d="M525 742c52-154 126-230 214-230 91 0 167 82 223 230" fill="none" stroke="#ffffff" stroke-width="28" opacity=".42"/>
  <g fill="#0f766e" opacity=".88">
    <circle cx="394" cy="706" r="28"/><path d="M350 782c7-52 29-78 44-78s37 26 44 78z"/>
    <circle cx="1130" cy="710" r="24"/><path d="M1092 782c6-46 25-70 38-70s32 24 38 70z"/>
    <circle cx="1216" cy="734" r="22"/><path d="M1180 790c6-40 24-60 36-60s30 20 36 60z"/>
  </g>
</svg>
